<?xml version="1.0" encoding="UTF-8" standalone="no"?>
<svg width="261px" height="312px" viewBox="0 0 261 312" version="1.1" xmlns="http://www.w3.org/2000/svg" xmlns:xlink="http://www.w3.org/1999/xlink">
    <!-- Generator: Sketch 3.6.1 (26313) - http://www.bohemiancoding.com/sketch -->
    <title>Untitled</title>
    <desc>Created with Sketch.</desc>
    <defs>
        <filter x="-50%" y="-50%" width="200%" height="200%" filterUnits="objectBoundingBox" id="filter-1">
            <feOffset dx="5" dy="5" in="SourceAlpha" result="shadowOffsetOuter1"></feOffset>
            <feGaussianBlur stdDeviation="4" in="shadowOffsetOuter1" result="shadowBlurOuter1"></feGaussianBlur>
            <feColorMatrix values="0 0 0 0 0   0 0 0 0 0   0 0 0 0 0  0 0 0 0.35 0" in="shadowBlurOuter1" type="matrix" result="shadowMatrixOuter1"></feColorMatrix>
            <feMerge>
                <feMergeNode in="shadowMatrixOuter1"></feMergeNode>
                <feMergeNode in="SourceGraphic"></feMergeNode>
            </feMerge>
        </filter>
        <filter x="-50%" y="-50%" width="200%" height="200%" filterUnits="objectBoundingBox" id="filter-2">
            <feOffset dx="5" dy="5" in="SourceAlpha" result="shadowOffsetOuter1"></feOffset>
            <feGaussianBlur stdDeviation="4" in="shadowOffsetOuter1" result="shadowBlurOuter1"></feGaussianBlur>
            <feColorMatrix values="0 0 0 0 0   0 0 0 0 0   0 0 0 0 0  0 0 0 0.35 0" in="shadowBlurOuter1" type="matrix" result="shadowMatrixOuter1"></feColorMatrix>
            <feMerge>
                <feMergeNode in="shadowMatrixOuter1"></feMergeNode>
                <feMergeNode in="SourceGraphic"></feMergeNode>
            </feMerge>
        </filter>
        <filter x="-50%" y="-50%" width="200%" height="200%" filterUnits="objectBoundingBox" id="filter-3">
            <feOffset dx="5" dy="5" in="SourceAlpha" result="shadowOffsetOuter1"></feOffset>
            <feGaussianBlur stdDeviation="5" in="shadowOffsetOuter1" result="shadowBlurOuter1"></feGaussianBlur>
            <feColorMatrix values="0 0 0 0 0   0 0 0 0 0   0 0 0 0 0  0 0 0 0.35 0" in="shadowBlurOuter1" type="matrix" result="shadowMatrixOuter1"></feColorMatrix>
            <feMerge>
                <feMergeNode in="shadowMatrixOuter1"></feMergeNode>
                <feMergeNode in="SourceGraphic"></feMergeNode>
            </feMerge>
        </filter>
    </defs>
    <g id="Page-1" stroke="none" stroke-width="1" fill="none" fill-rule="evenodd">
        <path d="M68.4034485,137.332866 C70.3397015,127.01894 80.2757741,117.087205 90.5843594,115.151955 L196.364272,95.2936893 C206.678198,93.3574363 213.928814,100.212167 212.556781,110.620821 L197.722803,223.155775 C196.351753,233.556969 186.815923,243.099276 176.407269,244.471309 L63.8723151,259.305287 C53.4711209,260.676337 46.6099328,253.421364 48.5451832,243.112778 L68.4034485,137.332866 Z" id="Rectangle-1-Copy-2" fill-opacity="0.970000029" fill="#4A4A4A" style="mix-blend-mode: overlay;" filter="url(#filter-1)" transform="translate(130.470964, 177.219056) rotate(45.000000) translate(-130.470964, -177.219056) "></path>
        <path d="M68.4034485,111.332866 C70.3397015,101.01894 80.2757741,91.087205 90.5843594,89.1519546 L196.364272,69.2936893 C206.678198,67.3574363 213.928814,74.2121675 212.556781,84.6208211 L197.722803,197.155775 C196.351753,207.556969 186.815923,217.099276 176.407269,218.471309 L63.8723151,233.305287 C53.4711209,234.676337 46.6099328,227.421364 48.5451832,217.112778 L68.4034485,111.332866 Z" id="Rectangle-1-Copy" fill="#9B9B9B" opacity="0.850000024" filter="url(#filter-2)" transform="translate(130.470964, 151.219056) rotate(45.000000) translate(-130.470964, -151.219056) "></path>
        <path d="M68.4034485,84.3328655 C70.3397015,74.0189397 80.2757741,64.087205 90.5843594,62.1519546 L196.364272,42.2936893 C206.678198,40.3574363 213.928814,47.2121675 212.556781,57.6208211 L197.722803,170.155775 C196.351753,180.556969 186.815923,190.099276 176.407269,191.471309 L63.8723151,206.305287 C53.4711209,207.676337 46.6099328,200.421364 48.5451832,190.112778 L68.4034485,84.3328655 Z" id="Rectangle-1" fill="#D0011B" opacity="0.99000001" filter="url(#filter-3)" transform="translate(130.470964, 124.219056) rotate(45.000000) translate(-130.470964, -124.219056) "></path>
        <g id="ruby-plain" transform="translate(79.000000, 84.000000)" fill="#820817">
            <path d="M24.7017381,59.9259167 C44.1023254,62.0196667 63.1582143,64.0760083 82.5927063,66.17255 C75.9713889,57.4592 69.5203016,48.968625 63.0176508,40.4088167 L24.7017381,59.9259167 L24.7017381,59.9259167 Z M88.0683254,11.6954083 C86.358254,13.7255083 84.6446508,15.7539333 82.9366984,17.78515 C77.0711746,24.7604083 71.2063571,31.7356667 65.3464841,38.714275 C65.0201508,39.102875 64.5970476,39.411075 65.056881,40.0101667 C70.7189762,47.400825 76.3365714,54.8132583 81.9682937,62.2189917 C82.856881,63.3887 83.7553571,64.5539417 84.9045873,65.6761917 C86.0432222,47.7017667 87.1811508,29.7267833 88.3190794,11.7523583 L88.0683254,11.6954083 L88.0683254,11.6954083 Z M10.7732381,34.7395 C11.038119,34.9377083 11.6992619,35.0532833 12.0072302,34.9332417 C17.4383492,32.8233 22.9040794,30.7602583 28.2165317,28.476675 C29.9492063,27.7324167 31.281381,26.398 32.7738968,25.31595 C37.7162222,21.733125 42.6507778,18.1430417 47.5832143,14.5524 C47.8848254,14.3318583 48.2422381,14.118575 48.4223571,13.840525 C50.193881,11.103575 51.9350317,8.35266667 53.7376349,5.522475 C51.5882143,4.88374167 49.5503968,4.25896667 47.4871508,3.69058333 C47.2074365,3.61353333 46.7666746,3.76651667 46.4636508,3.89995833 C41.6880238,6.00878333 36.8226905,8.00538333 32.1989286,10.3051583 C29.8856349,11.4558833 28.0010952,13.1515417 25.9526825,14.6283333 C22.6512063,17.0101833 19.3539683,19.3976167 16.1005238,21.8207833 C15.2373651,22.4639833 14.4504921,23.19875 13.7780476,23.9726 C11.5530476,26.533675 9.39444444,29.1316 7.13695238,31.803225 C8.39849206,32.8344667 9.54560317,33.8204833 10.7732381,34.7395 L10.7732381,34.7395 Z M30.6230635,31.2381917 C27.9212778,40.2603 25.2357381,49.2316 22.4604921,58.4977 C35.4735635,51.869725 48.1864365,45.3947333 60.815254,38.9632917 C50.7653175,36.3921667 40.747873,33.8288583 30.6230635,31.2381917 L30.6230635,31.2381917 Z M84.7513095,11.7825083 C73.7562778,13.2347333 63.0240079,14.6517833 52.1532937,16.0872583 C55.8559762,23.2065667 59.4844921,30.1829417 63.2161349,37.357525 C70.4357302,28.7820833 77.5126429,20.3786083 84.7513095,11.7825083 L84.7513095,11.7825083 Z M31.0765397,29.3929 C40.9774365,31.9333167 50.6812619,34.4234833 60.6669206,36.9862333 C56.9585873,29.84515 53.3773968,22.9536417 49.7220397,15.9164083 C43.4955714,20.4160167 37.3623413,24.8491833 31.0765397,29.3929 L31.0765397,29.3929 Z M11.1822143,40.000675 C7.67095238,46.63535 4.27906349,53.0444583 0.825722222,59.5691417 C7.46257937,59.413925 13.8960079,59.2637333 20.5505238,59.1085167 C17.4263413,52.7368167 14.3636111,46.4901833 11.1822143,40.000675 L11.1822143,40.000675 Z M20.783619,54.5709417 L21.0280159,54.5285083 C23.3964048,46.7447833 25.7986984,39.0146583 28.2165317,30.9266417 C22.8228492,33.1426667 17.6778016,35.2559583 12.3921905,37.427875 C15.0897381,42.9698917 17.9659921,48.8162 20.783619,54.5709417 L20.783619,54.5709417 Z M80.7717381,10.5201167 C77.622127,9.860725 74.4725159,9.1991 71.3214921,8.544175 C66.792381,7.602825 62.2597381,6.6732 57.7334524,5.723475 C57.1676667,5.60455 56.7586905,5.52694167 56.426,6.06573333 C54.826119,8.6564 53.1767937,11.227525 51.5514841,13.8087 C51.5013333,13.8885417 51.5119286,13.9918333 51.4730794,14.192275 C61.2814444,13.0175417 71.024119,11.8500667 80.765381,10.68315 L80.7717381,10.5201167 L80.7717381,10.5201167 Z M62.4991905,4.62746667 L88.1700397,10.24095 C86.6980079,6.92500833 85.3326349,3.85026667 83.9284127,0.687866667 L62.536627,4.437075 L62.4991905,4.62746667 L62.4991905,4.62746667 Z M22.959881,61.420575 C19.7806032,61.1308 16.5165635,61.397125 13.2920794,61.4412333 C10.6432698,61.4764083 7.99446032,61.55625 5.34565079,61.621575 C5.073,61.628275 4.80105556,61.671825 4.52911111,61.9040917 C26.4280556,63.504275 48.3262937,65.1044583 70.2245317,66.7057583 L70.2690317,66.4746083 C63.2493333,65.71695 56.2289286,64.9592917 49.2092302,64.2021917 C40.4618016,63.25805 31.7292063,62.21955 22.959881,61.420575 L22.959881,61.420575 Z M1.25871429,53.59665 C4.08057937,48.4209 6.89043651,43.2418 9.72360317,38.0699583 C10.0068492,37.5512667 9.98495238,37.1989583 9.43046825,36.781325 C8.24521429,35.8896667 7.14401587,34.928775 5.84857143,33.863475 C4.09753175,40.697475 2.38957937,47.3623 0.680214286,54.0265667 L0.871634921,54.097475 C1.00230952,53.93165 1.16194444,53.7747583 1.25871429,53.59665 L1.25871429,53.59665 Z M56.8766508,3.261225 C61.6353254,2.29084167 66.4632222,1.53206667 71.2628651,0.685633333 C71.5736587,0.630358333 71.8773889,0.5494 72.1832381,0.480166667 L72.1359127,0.2948 C65.3754444,1.013375 58.6156825,1.73250833 51.514754,2.48793333 C53.4508571,3.15625833 54.9426667,3.65540833 56.8766508,3.261225 L56.8766508,3.261225 Z" id="Shape"></path>
        </g>
    </g>
</svg>